<svg xmlns="http://www.w3.org/2000/svg" width="30.649" height="30" viewBox="0 0 30.649 30">
  <g id="ic_ketnoi100doitac" transform="translate(-52.706 -75.678)">
    <g id="Group_32078" data-name="Group 32078" transform="translate(52.706 75.678)">
      <path id="Path_57817" data-name="Path 57817" d="M80.969,93.071a17.031,17.031,0,0,0-2.174-.918,10.672,10.672,0,0,0,1.793-5.915c0-5.1-2.824-10.56-9.021-10.56a8.758,8.758,0,0,0-3.713.777,10.017,10.017,0,0,0-2.781-.4c-4.433,0-7.313,2.6-7.313,6.593a8.169,8.169,0,0,0,.184,1.68,2.8,2.8,0,0,0-.254,1.5,2.583,2.583,0,0,0,.791,1.751,1.116,1.116,0,0,0,.649.282,7.9,7.9,0,0,0,2.584,3.981,3.681,3.681,0,0,1-.946,1.793c-.9.155-1.468.3-1.482.3-.381.1-.791.212-1.271.367a19.485,19.485,0,0,0-2.838,1.172,4.525,4.525,0,0,0-2.471,4.023v1.228a3.046,3.046,0,0,0,1.609,2.711,22.787,22.787,0,0,0,10.744,2.245c5.365,0,8.809-1.214,10.743-2.245a2.962,2.962,0,0,0,1.158-1.087,18.144,18.144,0,0,0,4.842-1.638,2.928,2.928,0,0,0,1.553-2.6V96.953A4.354,4.354,0,0,0,80.969,93.071ZM71.567,76.6c5.562,0,8.089,5.012,8.089,9.642a9.733,9.733,0,0,1-1.779,5.6l-.833-.226a14.318,14.318,0,0,0-1.44-.353,3.357,3.357,0,0,1-.861-1.581,7.38,7.38,0,0,0,2.146-3.4,1.049,1.049,0,0,0,.565-.268,2.368,2.368,0,0,0,.734-1.609,1.9,1.9,0,0,0-1.073-2.118,1.783,1.783,0,0,0-.607-.014,3.5,3.5,0,0,0-1.285-1.638,3.544,3.544,0,0,0-3.191-.184,5.736,5.736,0,0,0-2.922-3.459A7.592,7.592,0,0,1,71.567,76.6Zm.522,17.7c-.48-.155-.889-.268-1.256-.367a12.09,12.09,0,0,0-1.539-.353,3.555,3.555,0,0,1-.9-1.736,6.751,6.751,0,0,0,1.285-1.327,4.478,4.478,0,0,0,1.849.424,4.762,4.762,0,0,0,2.414-.678,4.5,4.5,0,0,0,.932,1.581,8.8,8.8,0,0,1-1.4,2.965C73.035,94.638,72.569,94.469,72.089,94.3Zm.325-8.471a2.958,2.958,0,0,0-.226-1.454,8.58,8.58,0,0,0,.184-1.722,7.833,7.833,0,0,0-.113-1.313,2.9,2.9,0,0,1,2.315,0,2.539,2.539,0,0,1,1.158,1.581.5.5,0,0,0,.2.339.467.467,0,0,0,.409.071l.141-.071a.518.518,0,0,1,.381-.07c.212.056.452.48.4,1.129a1.43,1.43,0,0,1-.4.974l-.113.042a.483.483,0,0,0-.4,0,.437.437,0,0,0-.254.311,6.375,6.375,0,0,1-2.259,3.586,3.857,3.857,0,0,1-3.642.494,10.13,10.13,0,0,0,.791-1.863,1.078,1.078,0,0,0,.635-.282A2.583,2.583,0,0,0,72.414,85.829Zm-7.341-8.838c3.925,0,6.367,2.174,6.367,5.661a6.373,6.373,0,0,1-.071.918l-.113-.042a1.444,1.444,0,0,0-.692-.014c-.113-.325-.3-.847-.593-1.68l-.028-.042-.042-.085-.071-.057-.028-.028-.071-.042h0a4.459,4.459,0,0,0-4.955.042,3.678,3.678,0,0,1-3.939,0l-.057-.028-.056-.028-.014-.014-.1-.014h-.1l-.071.028-.085.028-.071.042-.071.056-.028.028-.028.056-.028.056c-.3.833-.48,1.355-.593,1.68a1.444,1.444,0,0,0-.692.014l-.085.042a6.527,6.527,0,0,1-.071-.918C58.692,79.165,61.134,76.991,65.073,76.991ZM59.906,87.24a.408.408,0,0,0-.268-.3.5.5,0,0,0-.424,0l-.141-.07a1.752,1.752,0,0,1-.466-1.115c-.057-.8.254-1.257.48-1.327a.6.6,0,0,1,.48.085l.141.07a.467.467,0,0,0,.409-.07.472.472,0,0,0,.2-.339c.028-.127.254-.791.508-1.5a4.777,4.777,0,0,0,1.991.452,4.24,4.24,0,0,0,2.513-.777,3.688,3.688,0,0,1,3.826-.056c.3.833.607,1.722.649,1.878a.416.416,0,0,0,.184.339.467.467,0,0,0,.409.07l.141-.07a.618.618,0,0,1,.48-.085c.24.071.551.522.48,1.327a1.68,1.68,0,0,1-.466,1.115.221.221,0,0,1-.184.056.516.516,0,0,0-.409,0,.454.454,0,0,0-.24.311,7,7,0,0,1-2.541,4,4.341,4.341,0,0,1-5.209,0A7,7,0,0,1,59.906,87.24Zm2.64,5.153a5.064,5.064,0,0,0,5.012,0,4.572,4.572,0,0,0,1.017,1.779c-.24.734-1.906,2.089-3.515,3.106-1.624-1.016-3.275-2.386-3.515-3.106A4.541,4.541,0,0,0,62.546,92.393Zm-8.922,8.329V99.494A3.592,3.592,0,0,1,55.6,96.3a16.281,16.281,0,0,1,2.7-1.1c.466-.155.861-.268,1.228-.381.014,0,.466-.113,1.2-.226.593,1.341,2.979,2.936,3.868,3.487v6.649a21.778,21.778,0,0,1-9.84-2.118A2.1,2.1,0,0,1,53.624,100.723Zm22.871,0a2.131,2.131,0,0,1-1.129,1.892,21.778,21.778,0,0,1-9.84,2.118V98.083c.9-.565,3.332-2.188,3.882-3.543.4.085.791.169,1.172.282s.762.212,1.228.367A15.762,15.762,0,0,1,74.518,96.3a3.592,3.592,0,0,1,1.976,3.191Zm5.929-2.612a2.022,2.022,0,0,1-1.059,1.779,16.209,16.209,0,0,1-4.009,1.412,2.7,2.7,0,0,0,.071-.579V99.494a5.2,5.2,0,0,0-.085-.8,21.757,21.757,0,0,0,2.344-.649.471.471,0,0,0-.311-.889,20.982,20.982,0,0,1-2.3.635,4.591,4.591,0,0,0-2.132-2.315,5.643,5.643,0,0,0-.593-.282,11,11,0,0,0,1.384-2.936,6.977,6.977,0,0,1,1.073.254c.353.085.72.2,1.158.339A16.71,16.71,0,0,1,80.546,93.9a3.423,3.423,0,0,1,1.878,3.049Z" transform="translate(-52.706 -75.678)" fill="#7e90a2"/>
    </g>
    <g id="Group_32079" data-name="Group 32079" transform="translate(69.685 99.718)">
      <path id="Path_57818" data-name="Path 57818" d="M58.094,77.413a24.449,24.449,0,0,1-3.789.958.476.476,0,0,0,.071.944l.072-.014a26.078,26.078,0,0,0,3.946-1,.468.468,0,1,0-.3-.886Z" transform="translate(-53.911 -77.386)" fill="#47ac00"/>
    </g>
  </g>
</svg>
